<?xml version="1.0" encoding="utf-8"?>
<!-- Generator: Adobe Illustrator 27.2.0, SVG Export Plug-In . SVG Version: 6.00 Build 0)  -->
<svg version="1.1" id="Layer_1" xmlns="http://www.w3.org/2000/svg" xmlns:xlink="http://www.w3.org/1999/xlink" x="0px" y="0px"
	 viewBox="0 0 192 192" style="enable-background:new 0 0 192 192;" xml:space="preserve">
<style type="text/css">
	.st0{fill:#FFFFFF;}
</style>
<path class="st0" d="M96,20c-42,0-76,34-76,76s34,76,76,76s76-34,76-76S138,20,96,20z M68.5,139.5c-8.8,0-16-7.2-16-16s7.2-16,16-16
	s16,7.2,16,16S77.3,139.5,68.5,139.5z M68.5,84.5c-8.8,0-16-7.2-16-16s7.2-16,16-16s16,7.2,16,16S77.3,84.5,68.5,84.5z M123.5,139.5
	c-8.8,0-16-7.2-16-16s7.2-16,16-16s16,7.2,16,16S132.3,139.5,123.5,139.5z M123.5,84.5c-8.8,0-16-7.2-16-16s7.2-16,16-16
	s16,7.2,16,16S132.3,84.5,123.5,84.5z"/>
</svg>
