<?xml version="1.0" encoding="utf-8"?>
<!-- Generator: Adobe Illustrator 27.2.0, SVG Export Plug-In . SVG Version: 6.00 Build 0)  -->
<svg version="1.1" id="Layer_1" xmlns="http://www.w3.org/2000/svg" xmlns:xlink="http://www.w3.org/1999/xlink" x="0px" y="0px"
	 viewBox="0 0 192 192" style="enable-background:new 0 0 192 192;" xml:space="preserve">
<style type="text/css">
	.st0{fill:none;stroke:#FFFFFF;stroke-width:10;stroke-linecap:round;stroke-linejoin:bevel;stroke-miterlimit:10;}
	.st1{fill:#FFFFFF;}
</style>
<g>
	<g>
		<circle class="st0" cx="139.9" cy="128.4" r="25"/>
		<polyline class="st0" points="111.4,128.9 28.9,128.9 28.9,157.9 		"/>
		<line class="st0" x1="49.5" y1="128.9" x2="49.5" y2="157.9"/>
		<line class="st0" x1="70.1" y1="128.9" x2="70.1" y2="157.9"/>
	</g>
	<g>
		<g>
			<path class="st1" d="M37.8,109.4c-3.2-2-5.9-5.1-7.1-8.7c-0.8-2.2-1.1-4.4-1-6.7c0-1.3,0.1-2.6,0.2-3.9c0.1-1,0-2.3,0.4-3.3
				c-0.2,0.4-0.4,0.7-0.6,1.1c0.1-0.1,0.1-0.1,0.2-0.2c-0.6,0.2-1.2,0.5-1.8,0.7c0.1,0,0.2,0,0.4,0c-0.4-0.1-0.8-0.2-1.3-0.3
				c0.6,0.3,1,1,1.4,1.6c0.6,0.8,1.1,1.7,1.9,2.4c1.6,1.4,3.7,2.3,5.8,1.5c1.4-0.5,2-1.6,1.7-3.1c-0.5-3-1.9-5.7-3.2-8.4
				c-1.2-2.7-2.1-5.4-2.7-8.3c-1.1-5.7-0.7-11.5,1-17c-1.6,0-3.2,0-4.8,0c2.1,5.1,4.2,10.1,6.2,15.2c0.5,1.2,1.4,2,2.7,1.8
				c1.1-0.2,2.3-1.2,2.2-2.5c-1-8.1,0.7-16.1,2.9-23.9c0.3-0.9,0.5-1.9,0.8-2.8c0.2-0.7,0.6-1.6,0.7-2.3c0.1-0.7-1.8-0.3-1.7,0.2
				c0,0.1,0.2,0.3,0.3,0.4c0.2,0.4,0.4,0.7,0.6,1.1c0.4,0.8,0.8,1.6,1.2,2.4c1.4,3.1,2.2,6.5,2.6,9.9c0.5,3.9,0.6,7.9,0.6,11.8
				c0,1.2,0.9,2.3,2.2,2.5c1.3,0.2,2.2-0.6,2.7-1.8c1.5-3.6,3-7.2,4.5-10.8c1-2.2,2.2-5,4.8-5.6c-1-0.6-2.1-1.2-3.1-1.7
				c0.6,3.2,1.3,6.4,1.9,9.5c0.5,2.7,1.5,5.7,0.8,8.4c-0.6,2.6-2.7,4.6-4.1,6.7c-1.7,2.6-3.1,5.3-4.3,8.2c-0.7,1.8,1.4,3.6,3.1,3.1
				c1.7-0.6,3.5-1.1,5.2-1.7c0.8-0.3,1.7-0.5,2.5-0.8c0.5-0.1,0.9-0.3,1.4-0.4c0.1,0,1.1-0.3,0.8-0.3c-0.4-0.1-0.8-0.2-1.3-0.3
				c0.1,0.1,0.2,0.1,0.3,0.2c-0.3-0.3-0.6-0.6-0.9-0.9c2.7,4.1,1,9.8-0.6,13.9c-1.6,4.2-3.7,8.8-7.5,11.4c-2.7,1.8-0.2,6.1,2.5,4.3
				c3.3-2.2,5.7-5.4,7.5-9c1.8-3.6,3.4-7.5,4-11.5c0.3-2,0.5-4,0.2-6c-0.2-2-0.8-4.8-2.3-6.3c-1.8-1.8-4.4-0.4-6.4,0.3
				c-2.3,0.7-4.5,1.5-6.8,2.2c1,1,2.1,2.1,3.1,3.1c1.1-2.8,2.7-5.4,4.4-7.9c1.8-2.5,3.6-4.8,4.1-7.9c0.5-3.2-0.2-6.3-0.8-9.5
				c-0.7-3.4-1.4-6.9-2.1-10.3c-0.3-1.4-1.8-2-3.1-1.7c-3.7,0.8-6,4-7.5,7.3c-1.9,4.2-3.6,8.5-5.3,12.7c1.6,0.2,3.3,0.4,4.9,0.7
				c-0.1-8.5-0.5-17.2-4.3-24.9c-0.9-1.8-2-4.2-3.9-5c-2.5-1-4.5,0.8-5.3,3c-0.8,2.2-1.3,4.5-1.9,6.7c-0.6,2.4-1.2,4.8-1.7,7.3
				c-1,5.4-1.6,10.9-0.9,16.3c1.6-0.2,3.3-0.4,4.9-0.7c-2.1-5.1-4.2-10.1-6.2-15.2c-0.9-2.2-4-2.5-4.8,0c-1.9,6.1-2.2,12.5-1.1,18.8
				c0.5,3.1,1.5,6.1,2.7,9c1.2,2.9,2.7,5.6,3.3,8.6c0.6-1,1.2-2.1,1.7-3.1c-1,0.4-1.9-1.4-2.3-2.1c-1.1-1.7-2.8-3.8-5.1-3.2
				c-2.4,0.7-2.3,3.6-2.5,5.5c-0.2,2.1-0.4,4.2-0.3,6.3c0.4,7.5,4.2,14.3,10.6,18.3C38,115.4,40.6,111.1,37.8,109.4L37.8,109.4z"/>
		</g>
	</g>
	<g>
		<g>
			<path class="st1" d="M142.5,88.2c4.9-3,7.9-8.2,8.1-14c0.1-1.5-0.1-3.1-0.2-4.6c-0.2-1.6-0.2-3.7-2-4.4c-1.7-0.7-3.2,0.4-4.2,1.7
				c-0.4,0.5-0.7,1.1-1.2,1.6c-0.1,0.1-0.2,0.2-0.3,0.3c-0.3,0.4-0.3,0-0.1,0.1c0.6,1,1.2,2.1,1.7,3.1c0.4-2.2,1.5-4.2,2.4-6.3
				c0.9-2.1,1.6-4.3,2-6.6c0.8-4.7,0.5-9.4-0.9-14c-0.8-2.5-3.9-2.2-4.8,0c-1.5,3.7-3,7.4-4.6,11.1c1.6,0.2,3.3,0.4,4.9,0.7
				c0.5-4.7-0.1-9.4-1.2-14c-0.5-2.4-1.2-4.7-1.9-7c-0.6-2.1-1.7-4.5-4.3-4.1c-2.2,0.3-3.4,2.7-4.2,4.4c-0.9,1.8-1.6,3.8-2,5.8
				c-0.9,4.1-1,8.3-1.1,12.4c1.6-0.4,3.1-0.8,4.7-1.3c-1.3-3-2.5-6.1-3.9-9c-1.2-2.5-3-4.8-5.8-5.4c-1.2-0.3-2.8,0.4-3.1,1.7
				c-0.5,2.6-1,5.1-1.6,7.7c-0.5,2.4-1,4.8-0.5,7.2c0.4,2.3,1.9,4,3.3,5.9c1.3,1.9,2.4,3.9,3.3,6c0.9-1.2,1.9-2.4,2.8-3.7
				c-1.7-0.5-3.4-1.1-5.1-1.6c-1.7-0.6-3.8-1.5-5.4,0c-1.1,1.1-1.6,2.9-1.8,4.4c-0.3,1.7-0.2,3.3,0.1,5c0.5,3,1.8,6,3.2,8.7
				c1.4,2.7,3.2,5,5.7,6.7c2.7,1.8,5.2-2.5,2.5-4.3c-2.6-1.7-4.1-4.9-5.2-7.7c-1.1-2.9-2.5-6.9-0.6-9.8c-0.3,0.3-0.6,0.6-0.9,0.9
				c0.1,0,0.1-0.1,0.2-0.1c-0.4,0.1-0.8,0.2-1.3,0.3c0.5,0.1,1.1,0.4,1.6,0.5c0.6,0.2,1.2,0.4,1.9,0.6c1.2,0.4,2.5,0.8,3.7,1.2
				c0.9,0.3,2.1-0.1,2.6-0.9c0.7-0.9,0.6-1.8,0.2-2.8c-0.8-1.8-1.7-3.6-2.8-5.3c-1.1-1.6-2.7-3.1-3.2-5c-0.4-1.9,0.2-3.9,0.6-5.7
				c0.5-2.3,0.9-4.7,1.4-7c-1,0.6-2.1,1.2-3.1,1.7c1.8,0.4,2.6,2.5,3.3,4.1c1.2,2.7,2.3,5.4,3.4,8c1,2.4,4.6,1,4.7-1.3
				c0-3.2,0.1-6.5,0.6-9.7c0.3-1.6,0.7-3.2,1.2-4.7c0.2-0.6,0.5-1.2,0.8-1.8c0.2-0.4,0.4-0.7,0.6-1.1c0.1-0.2,0.2-0.4,0.3-0.5
				c0.5-0.6,0.2-0.5-0.7,0.1c-0.4-0.1-0.8-0.2-1.3-0.3c-0.5-0.2-0.2-0.6-0.1-0.1c0.1,0.5,0.3,1,0.4,1.4c0.3,0.9,0.5,1.9,0.8,2.8
				c0.5,1.8,1,3.6,1.3,5.4c0.7,3.6,1,7.3,0.6,11c-0.1,1.2,1.1,2.3,2.2,2.5c1.3,0.2,2.3-0.6,2.7-1.8c1.5-3.7,3-7.4,4.6-11.1
				c-1.6,0-3.2,0-4.8,0c1.2,3.9,1.6,8.1,0.7,12.2c-0.4,2-1,3.9-1.9,5.8c-0.9,2-2,4-2.4,6.3c-0.3,1.4,0.4,2.6,1.7,3.1
				c1.7,0.6,3.5,0,4.8-1.2c0.5-0.5,1-1.1,1.4-1.6c0.3-0.4,0.6-1,1-1.2c-0.4,0.1-0.8,0.2-1.3,0.3c0.1,0,0.2,0,0.3,0
				c-0.6-0.2-1.2-0.5-1.8-0.7c0.1,0.1,0.1,0.1,0.2,0.2c-0.2-0.4-0.4-0.7-0.6-1.1c1.3,5.8,0.1,12.3-5.3,15.5
				C137.2,85.6,139.8,89.9,142.5,88.2L142.5,88.2z"/>
		</g>
	</g>
</g>
</svg>
